<svg width="31" height="21" viewBox="0 0 31 21" fill="none" xmlns="http://www.w3.org/2000/svg">
<path d="M27.4869 0.5H3.77354C2.13624 0.5 0.804199 1.6391 0.804199 3.03923V17.9608C0.804199 19.3609 2.13624 20.5 3.77354 20.5H27.4869C29.1243 20.5 30.4562 19.3609 30.4562 17.9608V3.03923C30.4562 1.6391 29.1243 0.5 27.4869 0.5ZM21.0409 9.85238L29.0048 2.63977C29.0504 2.76614 29.075 2.90027 29.075 3.03923V17.9608C29.075 18.0504 29.0645 18.138 29.045 18.2228L21.0409 9.85238ZM27.4869 1.68115C27.6896 1.68115 27.8833 1.71416 28.0617 1.77357L16.967 11.8215C16.6161 12.1393 16.1413 12.3144 15.6302 12.3144C15.1191 12.3144 14.6444 12.1393 14.2935 11.8215L3.19875 1.77357C3.37714 1.71416 3.57085 1.68115 3.77354 1.68115H27.4869ZM2.2176 18.2334C2.19653 18.1453 2.18542 18.0541 2.18542 17.9608V3.03923C2.18542 2.90027 2.21007 2.76614 2.25558 2.63983L10.2685 9.89673L2.2176 18.2334ZM3.77354 19.3189C3.52859 19.3189 3.2964 19.2711 3.08894 19.186L11.2241 10.7622L13.2892 12.6324C13.9038 13.1889 14.7351 13.4955 15.6302 13.4955C16.5253 13.4955 17.3567 13.1889 17.9712 12.6324L20.0847 10.7183L28.179 19.1829C27.9696 19.27 27.7348 19.3189 27.4869 19.3189H3.77354Z" fill="#EB1F8F"/>
</svg>
